# xmcd
# 
# Track frame offsets:
#     150
#     13256
#     26494
#     35807
#     46268
#     56507
#     72670
#     84462
#     93633
#     102622
#     111343
#     128640
#     138577
#     150673
#     162853
#     175679
#     187441
#     200955
#     212346
#     220782
#     234313
# 
# Disc length: 3263
# 
# Revision: 4
# Processed by: cddbd v1.5.2PL0 Copyright (c) Steve Scherf et al.
# Submitted via: fre:ac v1.0.31
# 
DISCID=390cbd15
DTITLE=Various Artist - Classic Country CD 2
DYEAR=2007
DGENRE=Country
TTITLE0=Kenny Rogers - Ruby Don't Take Your Love To Town
TTITLE1=Lynn Anderson - Rose Garden
TTITLE2=Merle Haggard - Today I Started Loving You Again
TTITLE3=Patsy Cline - Honky Tonk Merry Go Round
TTITLE4=Dave Dudley - Six Days On The Road
TTITLE5=Holly Dunn - Only When I Love
TTITLE6=Willie Nelson - Nightlife
TTITLE7=Johnny Paycheck - Mr. Love Maker
TTITLE8=Tex Ritter - Cielito Lindo
TTITLE9=Waylon Jennings - Love's Gonna Live Here
TTITLE10=Kenny Rogers - Something's Burning
TTITLE11=Johnny Paycheck - Lovin' You Beats All
TTITLE12=Dolly Parton - Makin' Believe
TTITLE13=Merle Haggard - Okie From Muskogee
TTITLE14=Patsy Cline - Yes I Understand
TTITLE15=Donna Fargo - The Happiest Girl In The Whole USA
TTITLE16=Faron Young - Welcome To My World
TTITLE17=Lynn Anderson - Listen To A Country Song
TTITLE18=Willie Nelson - Slow Down Old World
TTITLE19=Billie Jo Spears - Mr. Walker Its All Over
TTITLE20=Kenny Rogers - Good Time Liberator
EXTD=YEAR: 2007
EXTT0=
EXTT1=
EXTT2=
EXTT3=
EXTT4=
EXTT5=
EXTT6=
EXTT7=
EXTT8=
EXTT9=
EXTT10=
EXTT11=
EXTT12=
EXTT13=
EXTT14=
EXTT15=
EXTT16=
EXTT17=
EXTT18=
EXTT19=
EXTT20=
PLAYORDER=
